<?xml version="1.0" encoding="UTF-8"?>
<svg width="148px" height="23px" viewBox="0 0 148 23" version="1.1" xmlns="http://www.w3.org/2000/svg" xmlns:xlink="http://www.w3.org/1999/xlink">
    <!-- Generator: Sketch 52.5 (67469) - http://www.bohemiancoding.com/sketch -->
    <title>Group 38</title>
    <desc>Created with Sketch.</desc>
    <defs>
        <polygon id="path-1" points="0.020198193 0.659960606 9.34427273 0.659960606 9.34427273 15.3332636 0.020198193 15.3332636"></polygon>
        <polygon id="path-3" points="0.182048485 0.0961818182 25.4102606 0.0961818182 25.4102606 19.4891545 0.182048485 19.4891545"></polygon>
        <polygon id="path-5" points="0 0.297466667 2.22507576 0.297466667 2.22507576 2.52289091 0 2.52289091"></polygon>
    </defs>
    <g id="Page-1" stroke="none" stroke-width="1" fill="none" fill-rule="evenodd">
        <g id="DF-App-Home-V01" transform="translate(-30.000000, -13.000000)">
            <g id="Group-38" transform="translate(30.000000, 13.000000)">
                <path d="M56.4728061,8.26933636 C56.3752303,8.25539697 56.2915939,8.24912424 56.2177152,8.24912424 L56.0197758,8.24912424 C55.2510182,8.24912424 54.6202606,8.41988182 54.1456242,8.75651818 C53.8096848,8.99418485 53.5253212,9.27297273 53.2939273,9.59009394 C53.2911394,9.46882121 53.2869576,9.33988182 53.2813818,9.20118485 C53.2688364,8.88894242 53.2493212,8.6157303 53.2242303,8.38851818 C53.2172606,8.32579091 53.1684727,8.27630606 53.1057455,8.26933636 C53.0025939,8.25609394 52.9064121,8.24703333 52.816503,8.24006364 C52.724503,8.23379091 52.6269273,8.23030606 52.5230788,8.23030606 C52.4317758,8.23030606 52.3369879,8.23379091 52.2394121,8.24006364 C52.1425333,8.24703333 52.0428667,8.25609394 51.9397152,8.26933636 C51.8714121,8.27700303 51.8205333,8.33485152 51.8205333,8.40315455 L51.8205333,18.0429424 C51.8205333,18.1091545 51.8686242,18.1656091 51.9334424,18.1767606 C52.0149879,18.190003 52.1258061,18.1997606 52.2707758,18.2067303 C52.4122606,18.213003 52.5147152,18.2157909 52.5795333,18.2157909 C52.656897,18.2157909 52.7628364,18.213003 52.8980485,18.2067303 C53.0360485,18.1997606 53.1433818,18.190003 53.2249273,18.1767606 C53.2904424,18.1656091 53.3385333,18.1091545 53.3385333,18.0429424 L53.3385333,13.0909727 C53.3385333,11.8726697 53.5866545,10.9944879 54.0759273,10.4815182 C54.5638061,9.96994242 55.2238364,9.7106697 56.037897,9.7106697 L56.2177152,9.7106697 C56.2672,9.7106697 56.3389879,9.71624545 56.4379576,9.72809394 C56.4435333,9.72879091 56.4491091,9.72948788 56.4546848,9.72948788 C56.5181091,9.72948788 56.5745636,9.68418485 56.5871091,9.62076061 C56.6261394,9.42351818 56.6463515,9.21791212 56.6463515,9.00812424 C56.6463515,8.81227576 56.6261394,8.60109394 56.5878061,8.38015455 C56.5773515,8.32230606 56.5306545,8.2777 56.4728061,8.26933636" id="Fill-1" fill="#3F3F3F"></path>
                <path d="M59.2705121,12.2373939 C59.3813303,11.3599091 59.6629061,10.6671212 60.1075727,10.1764545 C60.5703606,9.6669697 61.2296939,9.40769697 62.0674515,9.40769697 C62.5225727,9.40769697 62.9149667,9.4920303 63.2341788,9.65721212 C63.5547848,9.82378788 63.8189364,10.0433333 64.0196636,10.3088788 C64.2217848,10.5765152 64.3737242,10.8943333 64.4699061,11.2546667 C64.5556333,11.5759697 64.6037242,11.9056364 64.6141788,12.2373939 L59.2705121,12.2373939 Z M65.0902091,9.30663636 C64.7445121,8.90936364 64.3116939,8.5950303 63.803603,8.37409091 C63.297603,8.15315152 62.7135424,8.04093939 62.0674515,8.04093939 C61.2938152,8.04093939 60.6191485,8.17963636 60.0615727,8.45215152 C59.502603,8.72466667 59.0377242,9.10730303 58.6801788,9.58890909 C58.3254212,10.0656364 58.0570879,10.6280909 57.8828455,11.2595455 C57.7106939,11.8854242 57.6228758,12.5649697 57.6228758,13.2800606 C57.6228758,14.0223333 57.7169667,14.7123333 57.9030576,15.3312424 C58.0898455,15.9585152 58.3853606,16.5063333 58.7805424,16.9600606 C59.1771182,17.4151818 59.6907848,17.7734242 60.3062091,18.0264242 C60.9181485,18.2780303 61.6569364,18.4055758 62.5023606,18.4055758 C63.0864212,18.4055758 63.6349364,18.3595758 64.1332697,18.2703636 C64.632997,18.1804545 65.0762697,18.0508182 65.4498455,17.8835455 C65.5021182,17.8591515 65.5334818,17.8061818 65.5293,17.7490303 C65.5160576,17.5775758 65.4895727,17.388697 65.4519364,17.1865758 C65.4122091,16.9760909 65.3578455,16.7934848 65.2909364,16.6450303 C65.2679364,16.5955455 65.2191485,16.5655758 65.1675727,16.5655758 C65.1522394,16.5655758 65.1369061,16.5683636 65.1222697,16.5739394 C64.7396333,16.7098485 64.3416636,16.8192727 63.9409061,16.8987273 C63.5429364,16.9795758 63.1038455,17.019303 62.6347848,17.019303 C61.4931485,17.019303 60.629603,16.7279697 60.0664515,16.1529697 C59.5228152,15.5981818 59.2377545,14.7220909 59.2175424,13.547 L65.9614212,13.547 C66.0311182,13.547 66.0889667,13.4947273 66.0959364,13.4257273 C66.1091788,13.2974848 66.1182394,13.1420606 66.1245121,12.9636364 C66.1314818,12.7852121 66.1342697,12.6388485 66.1342697,12.5238485 C66.1342697,11.8826364 66.0464515,11.2804545 65.8729061,10.7347273 C65.6986636,10.1848182 65.4352091,9.70460606 65.0902091,9.30663636 Z" id="Fill-3" fill="#3F3F3F"></path>
                <path d="M73.5294667,16.8534939 C73.2423152,16.9057667 72.9468,16.9496758 72.6478,16.9831303 C72.3146485,17.0193727 71.9508303,17.0388879 71.5668,17.0388879 C71.2705879,17.0388879 70.9722848,17.0165848 70.6788606,16.9740697 C70.393103,16.9322515 70.1275576,16.8479182 69.8905879,16.7231606 C69.6605879,16.6032818 69.4717091,16.4248576 69.3281333,16.1948576 C69.1845576,15.9662515 69.1120727,15.6533121 69.1120727,15.264403 C69.1120727,14.6517667 69.3462545,14.1931606 69.8285576,13.8641909 C70.3199212,13.5282515 71.0322242,13.3581909 71.9445576,13.3581909 C72.2261333,13.3581909 72.5300121,13.3742212 72.8478303,13.4048879 C73.1112848,13.4306758 73.338497,13.4550697 73.5294667,13.4759788 L73.5294667,16.8534939 Z M71.3019515,8.04100909 C70.7952545,8.04100909 70.2927394,8.07655455 69.8083455,8.14694848 C69.3246485,8.21664545 68.9106485,8.30376667 68.5781939,8.40622121 C68.5210424,8.42364545 68.4827091,8.47591818 68.4827091,8.53585758 C68.4827091,8.73449394 68.5057091,8.9470697 68.5517091,9.16800909 C68.5984061,9.39661515 68.6555576,9.57016061 68.7259515,9.69770606 C68.7510424,9.74161515 68.7963455,9.76740303 68.8444364,9.76740303 C68.8576788,9.76740303 68.8709212,9.76531212 68.8841636,9.7611303 C69.2047697,9.66285758 69.5741636,9.57852424 69.9825879,9.51022121 C70.3889212,9.44261515 70.8454364,9.40776667 71.3395879,9.40776667 C72.0679212,9.40776667 72.6213152,9.58897879 72.9837394,9.94582727 C73.3454667,10.3019788 73.5294667,10.8832515 73.5294667,11.6729182 L73.5294667,12.1078273 C73.3419818,12.0869182 73.1210424,12.0646152 72.8652545,12.0395242 C72.5328,12.0081606 72.1348303,11.9914333 71.6797091,11.9914333 C71.0900727,11.9914333 70.5408606,12.0632212 70.0453152,12.2047061 C69.5462848,12.3475848 69.1106788,12.5622515 68.7517394,12.8424333 C68.3900121,13.125403 68.1042545,13.4780697 67.9014364,13.8913727 C67.6972242,14.3039788 67.5940727,14.7786152 67.5940727,15.3020394 C67.5940727,16.3907061 67.9537091,17.1915242 68.6639212,17.6814939 C69.358103,18.1617061 70.3157394,18.4056455 71.5103455,18.4056455 C72.0783758,18.4056455 72.6889212,18.3603424 73.3245576,18.2711303 C73.9560121,18.1826152 74.4989515,18.093403 74.9387394,18.0055848 C75.0021636,17.9930394 75.0474667,17.9379788 75.0474667,17.8731606 L75.0474667,11.5028576 C75.0474667,10.3221909 74.7331333,9.43982727 74.1142242,8.87946364 C73.499497,8.32328182 72.5530121,8.04100909 71.3019515,8.04100909 Z" id="Fill-5" fill="#3F3F3F"></path>
                <path d="M87.1513909,8.04128788 C86.7722394,8.04128788 86.4230576,8.09843939 86.113603,8.20995455 C85.8069364,8.32077273 85.5316333,8.46713636 85.2939667,8.64486364 C85.0590879,8.82119697 84.8479061,9.02262121 84.665997,9.24356061 C84.5433303,9.39271212 84.4290273,9.53977273 84.3237848,9.68265152 C84.2352697,9.49586364 84.1425727,9.32231818 84.0443,9.16410606 C83.9042091,8.93759091 83.7285727,8.73825758 83.5222697,8.57237879 C83.3152697,8.40510606 83.0692394,8.27337879 82.7904515,8.18068182 C82.5123606,8.08798485 82.1799061,8.04128788 81.8028455,8.04128788 C81.3993,8.04128788 81.031997,8.09774242 80.7093,8.20925758 C80.3886939,8.32077273 80.1001485,8.46992424 79.8513303,8.65392424 C79.6032091,8.83722727 79.3836636,9.04910606 79.2010576,9.28468182 C79.1292697,9.37598485 79.0630576,9.46937879 79.0010273,9.56416667 C78.9982394,9.45334848 78.9940576,9.33556061 78.9891788,9.21080303 C78.9766333,8.89159091 78.9571182,8.61489394 78.9313303,8.38837879 C78.9243606,8.32565152 78.8755727,8.27616667 78.8135424,8.26919697 C78.7103909,8.25665152 78.6142091,8.24689394 78.5243,8.23992424 C78.431603,8.23365152 78.3347242,8.23016667 78.2301788,8.23016667 C78.1388758,8.23016667 78.0454818,8.23365152 77.9472091,8.23992424 C77.8496333,8.24689394 77.7499667,8.25665152 77.6468152,8.26919697 C77.5792091,8.27686364 77.5276333,8.33471212 77.5276333,8.40371212 L77.5276333,18.0435 C77.5276333,18.1090152 77.5764212,18.1654697 77.6412394,18.1766212 C77.7227848,18.1905606 77.8329061,18.1996212 77.9778758,18.2065909 C78.1200576,18.2128636 78.2225121,18.2163485 78.2866333,18.2163485 C78.3646939,18.2163485 78.4699364,18.2128636 78.6051485,18.2065909 C78.7438455,18.1996212 78.8511788,18.1905606 78.9327242,18.1766212 C78.9982394,18.1654697 79.0456333,18.1090152 79.0456333,18.0435 L79.0456333,13.2044394 C79.0456333,12.639197 79.1111485,12.1136818 79.2393909,11.6425303 C79.3676333,11.1734697 79.5488455,10.7643485 79.7788455,10.4263182 C80.0053606,10.0917727 80.2771788,9.82831818 80.5866333,9.64431818 C80.8919061,9.46240909 81.2306333,9.37040909 81.5944515,9.37040909 C82.1304212,9.37040909 82.5297848,9.5795 82.8141485,10.0088333 C83.1068758,10.4514091 83.2553303,11.1504697 83.2553303,12.0892879 L83.2553303,18.0435 C83.2553303,18.1090152 83.3034212,18.1654697 83.3682394,18.1766212 C83.4497848,18.1905606 83.560603,18.1996212 83.7055727,18.2065909 C83.8470576,18.2128636 83.9495121,18.2163485 84.0143303,18.2163485 C84.090997,18.2163485 84.1976333,18.2128636 84.3321485,18.2065909 C84.4715424,18.1996212 84.5788758,18.1905606 84.6604212,18.1766212 C84.7252394,18.1654697 84.7733303,18.1090152 84.7733303,18.0435 L84.7733303,12.3917727 C84.7733303,11.9903182 84.825603,11.6055909 84.9287545,11.2480455 C85.0305121,10.8932879 85.1789667,10.5803485 85.3706333,10.316197 C85.5602091,10.0569242 85.7992697,9.84713636 86.0822394,9.6945 C86.3638152,9.54186364 86.6983606,9.4645 87.0768152,9.4645 C87.701997,9.4645 88.1564212,9.68613636 88.4672697,10.1426515 C88.7843909,10.6096212 88.9446939,11.3470152 88.9446939,12.3346212 L88.9446939,18.0435 C88.9446939,18.1090152 88.9927848,18.1654697 89.057603,18.1766212 C89.1398455,18.1905606 89.2499667,18.1996212 89.3949364,18.2065909 C89.5364212,18.2128636 89.6388758,18.2163485 89.7036939,18.2163485 C89.7803606,18.2163485 89.886997,18.2128636 90.0215121,18.2065909 C90.1602091,18.1996212 90.2675424,18.1905606 90.3490879,18.1766212 C90.414603,18.1654697 90.4626939,18.1090152 90.4626939,18.0435 L90.4626939,11.9004091 C90.4626939,10.6779242 90.2020273,9.72168182 89.6876636,9.0574697 C89.1649364,8.3835 88.3111485,8.04128788 87.1513909,8.04128788" id="Fill-7" fill="#3F3F3F"></path>
                <path d="M98.0619636,4.16474242 C98.0689333,4.09783333 98.0257212,4.03510606 97.9602061,4.01907576 C97.8068727,3.98074242 97.6145091,3.94519697 97.3893879,3.91243939 C97.1621758,3.88037879 96.9112667,3.86434848 96.6422364,3.86434848 C95.4727212,3.86434848 94.6022061,4.17868182 94.0550848,4.79828788 C93.5128424,5.41301515 93.2368424,6.33998485 93.2368424,7.55271212 L93.2368424,8.26780303 L92.1147212,8.26780303 C92.049903,8.26780303 91.9948424,8.31310606 91.9816,8.3765303 C91.9676606,8.44692424 91.9572061,8.53334848 91.9509333,8.64068182 C91.9446606,8.7445303 91.9418727,8.84768182 91.9418727,8.9515303 C91.9418727,9.05607576 91.9446606,9.15365152 91.9509333,9.24495455 C91.9572061,9.33765152 91.9676606,9.42059091 91.9816,9.48889394 C91.9948424,9.55162121 92.049903,9.59692424 92.1147212,9.59692424 L93.2368424,9.59692424 L93.2368424,18.0435 C93.2368424,18.1090152 93.2849333,18.1654697 93.3504485,18.1766212 C93.431297,18.1905606 93.5421152,18.1996212 93.6870848,18.2065909 C93.8292667,18.2128636 93.9317212,18.2163485 93.9958424,18.2163485 C94.0732061,18.2163485 94.1791455,18.2128636 94.3143576,18.2065909 C94.4523576,18.1996212 94.5603879,18.1905606 94.6419333,18.1766212 C94.7074485,18.1654697 94.7548424,18.1090152 94.7548424,18.0435 L94.7548424,9.59692424 L97.2653273,9.59692424 C97.3301455,9.59692424 97.385903,9.55162121 97.3984485,9.48819697 C97.4116909,9.41989394 97.4221455,9.33834848 97.4291152,9.24495455 C97.4360848,9.15365152 97.4381758,9.05607576 97.4381758,8.9515303 C97.4381758,8.84768182 97.4360848,8.7445303 97.4291152,8.63998485 C97.4221455,8.53334848 97.4116909,8.44692424 97.3984485,8.37722727 C97.385903,8.31380303 97.3301455,8.26780303 97.2653273,8.26780303 L94.7548424,8.26780303 L94.7548424,7.60916667 C94.7548424,7.10804545 94.8008424,6.69404545 94.8914485,6.38040909 C94.9792667,6.07513636 95.1026303,5.83607576 95.2573576,5.6695 C95.4113879,5.50362121 95.5981758,5.39280303 95.8274788,5.32937879 C96.0672364,5.26386364 96.3474182,5.23040909 96.6610545,5.23040909 C96.8652667,5.23040909 97.0611152,5.24574242 97.2437212,5.27640909 C97.4270242,5.30707576 97.5775697,5.33495455 97.6904788,5.36004545 C97.7002364,5.36213636 97.7099939,5.36283333 97.7197515,5.36283333 C97.7789939,5.36283333 97.8326606,5.32380303 97.8493879,5.26525758 C97.9016606,5.08265152 97.9434788,4.91468182 97.9748424,4.76343939 C98.0076,4.60662121 98.0368727,4.4045 98.0619636,4.16474242" id="Fill-9" fill="#3F3F3F"></path>
                <path d="M103.907936,16.8534939 C103.620785,16.9057667 103.324573,16.9496758 103.02627,16.9831303 C102.693118,17.0193727 102.3293,17.0388879 101.94527,17.0388879 C101.649058,17.0388879 101.350755,17.0165848 101.05733,16.9740697 C100.771573,16.9322515 100.506027,16.8479182 100.268361,16.7231606 C100.039058,16.6032818 99.8501788,16.4248576 99.706603,16.1948576 C99.5630273,15.9662515 99.4905424,15.6533121 99.4905424,15.264403 C99.4905424,14.6517667 99.7247242,14.1931606 100.20633,13.8641909 C100.698391,13.5282515 101.409997,13.3581909 102.323027,13.3581909 C102.604603,13.3581909 102.908482,13.3742212 103.2263,13.4048879 C103.489755,13.4306758 103.716967,13.4550697 103.907936,13.4759788 L103.907936,16.8534939 Z M101.680421,8.04100909 C101.173724,8.04100909 100.670512,8.07655455 100.186815,8.14694848 C99.7031182,8.21664545 99.2891182,8.30376667 98.9566636,8.40622121 C98.8995121,8.42364545 98.8611788,8.47591818 98.8611788,8.53585758 C98.8611788,8.73449394 98.8841788,8.9470697 98.9301788,9.16800909 C98.9768758,9.39661515 99.0340273,9.57016061 99.1044212,9.69770606 C99.1295121,9.74161515 99.1748152,9.76740303 99.2229061,9.76740303 C99.2361485,9.76740303 99.2493909,9.76531212 99.2626333,9.7611303 C99.5832394,9.66285758 99.9526333,9.57852424 100.360361,9.51022121 C100.767391,9.44261515 101.223906,9.40776667 101.718058,9.40776667 C102.445694,9.40776667 102.999088,9.58897879 103.362209,9.94582727 C103.723936,10.3019788 103.907936,10.8832515 103.907936,11.6729182 L103.907936,12.1078273 C103.720452,12.0869182 103.499512,12.0646152 103.243724,12.0395242 C102.91127,12.0081606 102.512603,11.9914333 102.058876,11.9914333 C101.469239,11.9914333 100.91933,12.0632212 100.424482,12.2047061 C99.9240576,12.3475848 99.4884515,12.5622515 99.1309061,12.8424333 C98.7684818,13.125403 98.4827242,13.4780697 98.2799061,13.8913727 C98.0763909,14.3039788 97.9725424,14.7786152 97.9725424,15.3020394 C97.9725424,16.3907061 98.3328758,17.1915242 99.0423909,17.6814939 C99.7365727,18.1617061 100.694209,18.4056455 101.888815,18.4056455 C102.457542,18.4056455 103.067391,18.3603424 103.70233,18.2711303 C104.333785,18.1826152 104.877421,18.093403 105.316512,18.0055848 C105.379936,17.9930394 105.425936,17.9379788 105.425936,17.8731606 L105.425936,11.5028576 C105.425936,10.3221909 105.1123,9.43982727 104.492694,8.87946364 C103.87727,8.32328182 102.931482,8.04100909 101.680421,8.04100909 Z" id="Fill-11" fill="#3F3F3F"></path>
                <path d="M114.551012,16.7731333 C114.528012,16.7264364 114.479921,16.6985576 114.429739,16.6985576 C114.415103,16.6985576 114.399073,16.7006485 114.383739,16.7062242 C114.115406,16.8038 113.808739,16.8846485 113.470012,16.9459818 C113.134073,17.0073152 112.776527,17.0386788 112.40783,17.0386788 C111.34077,17.0386788 110.484891,16.7299212 109.865285,16.1221636 C109.246376,15.5158 108.932042,14.5400424 108.932042,13.2234667 C108.932042,12.6582242 109.000345,12.1368909 109.134861,11.6734061 C109.267982,11.214103 109.472891,10.8098606 109.744012,10.4725273 C110.012345,10.1379818 110.352467,9.87452727 110.753921,9.68843636 C111.156073,9.50234545 111.635588,9.40825455 112.181315,9.40825455 C112.612042,9.40825455 113.021164,9.43961818 113.39683,9.50095152 C113.7718,9.56228485 114.084739,9.63686061 114.328679,9.72189091 C114.343315,9.7267697 114.358648,9.72955758 114.373285,9.72955758 C114.426952,9.72955758 114.47783,9.6968 114.498739,9.6438303 C114.552406,9.51070909 114.601891,9.33089091 114.647891,9.11064848 C114.693194,8.88970909 114.716194,8.68967879 114.716194,8.5168303 C114.716194,8.45898182 114.679952,8.40810303 114.625588,8.38928485 C114.366315,8.29867879 114.012952,8.21713333 113.572467,8.14673939 C113.131285,8.07704242 112.662921,8.04149697 112.181315,8.04149697 C111.397224,8.04149697 110.695376,8.17531515 110.093891,8.44016364 C109.491709,8.70570909 108.982921,9.07719394 108.581467,9.54346667 C108.180709,10.0083455 107.873345,10.5610424 107.667042,11.1869212 C107.461436,11.8086182 107.357588,12.4937394 107.357588,13.2234667 C107.357588,14.8892242 107.783436,16.1828 108.623982,17.0686485 C109.465224,17.9551939 110.706527,18.4054364 112.313042,18.4054364 C112.809982,18.4054364 113.269982,18.3664061 113.6798,18.2897394 C114.088224,18.2123758 114.457618,18.115497 114.778224,18.000497 C114.840255,17.9781939 114.877194,17.9140727 114.865345,17.8485576 C114.838861,17.7063758 114.797739,17.5244667 114.739891,17.3098 C114.681345,17.0874667 114.617921,16.9076485 114.551012,16.7731333" id="Fill-13" fill="#3F3F3F"></path>
                <path d="M121.043564,16.8650636 C121.024048,16.8546091 121.001745,16.8497303 120.980139,16.8497303 C120.965503,16.8497303 120.95017,16.8518212 120.93623,16.8567 C120.623291,16.9654273 120.250412,17.0197909 119.827352,17.0197909 C119.659382,17.0197909 119.492109,17.0044576 119.332503,16.9744879 C119.184048,16.9473061 119.050927,16.8887606 118.935927,16.8016394 C118.821624,16.7152152 118.72823,16.5890636 118.655745,16.4287606 C118.581867,16.2649727 118.54423,16.0321848 118.54423,15.7373667 L118.54423,9.59706364 L121.017776,9.59706364 C121.082594,9.59706364 121.138352,9.55106364 121.1502,9.48833636 C121.164139,9.41933636 121.173897,9.33360909 121.180867,9.22557879 C121.187139,9.12103333 121.191321,9.01718485 121.191321,8.91333636 C121.191321,8.80948788 121.187139,8.71191212 121.180867,8.62060909 C121.173897,8.52512424 121.164139,8.4456697 121.1502,8.37736667 C121.138352,8.31394242 121.082594,8.26794242 121.017776,8.26794242 L118.54423,8.26794242 L118.54423,5.43615455 C118.54423,5.36088182 118.483594,5.30024545 118.409715,5.30024545 L118.333745,5.30024545 C118.298897,5.30024545 118.264745,5.31488182 118.239655,5.33927576 L117.067352,6.49276061 C117.041564,6.51785152 117.02623,6.5527 117.02623,6.58894242 L117.02623,8.26794242 L115.904109,8.26794242 C115.839988,8.26794242 115.78423,8.31324545 115.771685,8.3766697 C115.757745,8.44497273 115.747291,8.52512424 115.741018,8.61991212 C115.734048,8.71191212 115.731261,8.80948788 115.731261,8.91333636 C115.731261,9.01788182 115.734048,9.12103333 115.741018,9.22488182 C115.747291,9.33360909 115.757745,9.42003333 115.771685,9.48903333 C115.78423,9.55176061 115.839988,9.59706364 115.904109,9.59706364 L117.02623,9.59706364 L117.02623,15.7938212 C117.02623,16.7005788 117.268079,17.3682758 117.744806,17.777397 C118.214564,18.1816394 118.832776,18.3865485 119.581321,18.3865485 C120.196048,18.3865485 120.743867,18.3140636 121.208048,18.1725788 C121.270079,18.1537606 121.309806,18.0938212 121.303533,18.0297 C121.2652,17.6463667 121.200382,17.2832455 121.110473,16.949397 C121.100715,16.9131545 121.076321,16.8824879 121.043564,16.8650636" id="Fill-15" fill="#3F3F3F"></path>
                <path d="M129.044427,16.0374121 C128.569094,16.7113818 127.866548,17.0389576 126.896367,17.0389576 C125.925488,17.0389576 125.223639,16.7113818 124.747609,16.0374121 C124.268791,15.3585636 124.026245,14.4113818 124.026245,13.2230485 C124.026245,12.0347152 124.268791,11.0882303 124.747609,10.4093818 C125.223639,9.73541212 125.925488,9.40783636 126.896367,9.40783636 C127.866548,9.40783636 128.568397,9.73541212 129.044427,10.4093818 C129.523245,11.0882303 129.766488,12.0354121 129.766488,13.2230485 C129.766488,14.4113818 129.523245,15.3578667 129.044427,16.0374121 M130.225094,9.54792727 C129.855003,9.08095758 129.387336,8.70877576 128.835336,8.44253333 C128.283336,8.17629091 127.630973,8.04107879 126.896367,8.04107879 C126.161064,8.04107879 125.505912,8.17629091 124.947639,8.44183636 C124.389367,8.70807879 123.918912,9.08095758 123.548821,9.54792727 C123.180124,10.0142 122.902033,10.5703818 122.721518,11.2018364 C122.542397,11.8284121 122.451094,12.5086545 122.451094,13.2230485 C122.451094,13.9381394 122.542397,14.6183818 122.721518,15.2449576 C122.901336,15.8764121 123.179427,16.431897 123.548821,16.8981697 C123.918912,17.3665333 124.390064,17.7387152 124.947639,18.0042606 C125.505912,18.270503 126.161064,18.4050182 126.896367,18.4050182 C127.630973,18.4050182 128.283336,18.270503 128.835336,18.0042606 C129.386639,17.7387152 129.854306,17.3665333 130.225094,16.8981697 C130.593094,16.4332909 130.87467,15.8778061 131.062155,15.2463515 C131.246852,14.6190788 131.340942,13.9388364 131.340942,13.2230485 C131.340942,12.5079576 131.246852,11.8277152 131.062155,11.2004424 C130.873973,10.5682909 130.593094,10.0128061 130.225094,9.54792727" id="Fill-17" fill="#3F3F3F"></path>
                <path d="M137.72867,8.26933636 C137.630397,8.25539697 137.546761,8.24912424 137.473579,8.24912424 L137.274942,8.24912424 C136.506185,8.24912424 135.876124,8.41988182 135.400791,8.75651818 C135.065548,8.99418485 134.780488,9.2736697 134.549094,9.59009394 C134.547003,9.46882121 134.542821,9.33918485 134.537245,9.20118485 C134.524003,8.88894242 134.504488,8.6157303 134.479397,8.38851818 C134.472427,8.32579091 134.423639,8.27630606 134.361609,8.26933636 C134.258458,8.25609394 134.161579,8.24703333 134.07167,8.24006364 C133.97967,8.23379091 133.882094,8.23030606 133.778245,8.23030606 C133.686942,8.23030606 133.592155,8.23379091 133.495276,8.24006364 C133.3977,8.24703333 133.298033,8.25609394 133.194882,8.26933636 C133.126579,8.27700303 133.0757,8.33485152 133.0757,8.40315455 L133.0757,18.0429424 C133.0757,18.1091545 133.123791,18.1656091 133.188609,18.1767606 C133.270852,18.190003 133.380973,18.1997606 133.525942,18.2067303 C133.668124,18.213003 133.769882,18.2157909 133.8347,18.2157909 C133.912064,18.2157909 134.018003,18.213003 134.153215,18.2067303 C134.291215,18.1997606 134.399245,18.190003 134.480791,18.1767606 C134.546306,18.1656091 134.5937,18.1091545 134.5937,18.0429424 L134.5937,13.0909727 C134.5937,11.8726697 134.841821,10.9944879 135.331791,10.4815182 C135.81967,9.96994242 136.4797,9.7106697 137.293761,9.7106697 L137.473579,9.7106697 C137.522367,9.7106697 137.594155,9.71624545 137.693124,9.72809394 C137.6987,9.72879091 137.704276,9.72948788 137.709852,9.72948788 C137.773276,9.72948788 137.82973,9.68418485 137.842276,9.62076061 C137.882003,9.42421515 137.901518,9.21791212 137.901518,9.00812424 C137.901518,8.81227576 137.882003,8.60109394 137.842973,8.38015455 C137.832518,8.32230606 137.786518,8.2777 137.72867,8.26933636" id="Fill-19" fill="#3F3F3F"></path>
                <g id="Group-23" transform="translate(138.696970, 7.570485)">
                    <mask id="mask-2" fill="white">
                        <use xlink:href="#path-1"></use>
                    </mask>
                    <g id="Clip-22"></g>
                    <path d="M9.32489697,0.763112121 C9.30468485,0.728960606 9.26983636,0.705263636 9.23080606,0.698990909 C9.15065455,0.686445455 9.04401818,0.675990909 8.91368485,0.669718182 C8.78474545,0.662748485 8.66904848,0.659960606 8.56589697,0.659960606 C8.46344242,0.659960606 8.34774545,0.662748485 8.21950303,0.669718182 C8.08707879,0.675990909 7.9832303,0.686445455 7.90238182,0.698990909 C7.85289697,0.707354545 7.81177576,0.74220303 7.79574545,0.78959697 L4.78483636,9.78538485 L1.71956364,0.7889 C1.70353333,0.741506061 1.66241212,0.707354545 1.61362424,0.698990909 C1.53138182,0.686445455 1.41498788,0.675990909 1.25747273,0.669718182 C1.10344242,0.662748485 0.97589697,0.659960606 0.873442424,0.659960606 C0.7452,0.659960606 0.611381818,0.662748485 0.470593939,0.669718182 C0.324927273,0.675990909 0.214806061,0.686445455 0.133260606,0.698990909 C0.094230303,0.705263636 0.0586848485,0.729657576 0.039169697,0.763809091 C0.0182606061,0.798657576 0.0147757576,0.840475758 0.0280181818,0.878809091 L3.50589697,10.518597 C3.52262424,10.564597 3.56235152,10.5980515 3.61113939,10.6064152 C3.69268485,10.6196576 3.80629091,10.6294152 3.9582303,10.6363848 C4.10459394,10.6419606 4.23562424,10.6454455 4.35132121,10.6454455 L4.52277576,10.6454455 L3.80698788,12.8123242 C3.65295758,13.2618697 3.47313939,13.5713242 3.27380606,13.7316273 C3.07935152,13.8877485 2.81171515,13.9665061 2.47995758,13.9665061 C2.23880606,13.9665061 2.01995758,13.945597 1.82829091,13.9037788 C1.63313939,13.8605667 1.48677576,13.8215364 1.39338182,13.7859909 C1.37804848,13.7804152 1.36201818,13.7776273 1.34598788,13.7776273 C1.29929091,13.7776273 1.25538182,13.8020212 1.23029091,13.8431424 C1.02956364,14.1783848 0.927109091,14.5575364 0.927109091,14.9708394 C0.927109091,15.0314758 0.967533333,15.0844455 1.02538182,15.1011727 C1.20659394,15.1527485 1.43589697,15.2043242 1.70841212,15.255203 C1.98789697,15.3074758 2.26668485,15.3332636 2.53710909,15.3332636 C3.12813939,15.3332636 3.64947273,15.1855061 4.08577576,14.8948697 C4.52556364,14.6014455 4.86777576,14.0884758 5.10335152,13.3685061 L9.33744242,0.876021212 C9.34998788,0.838384848 9.34510909,0.797263636 9.32489697,0.763112121" id="Fill-21" fill="#3F3F3F" mask="url(#mask-2)"></path>
                </g>
                <path d="M47.5935515,13.9233636 C47.3377636,14.6475152 46.9690667,15.2357576 46.4972182,15.6713636 C46.0253697,16.1076667 45.444097,16.4206061 44.7701273,16.6025152 C44.0864,16.7872121 43.3078848,16.8806061 42.4561879,16.8806061 C42.1327939,16.8806061 41.8156727,16.8687576 41.5138848,16.8436667 C41.2601879,16.8227576 41.0343697,16.8025455 40.8364303,16.7816364 L40.8364303,5.71445455 C41.0246121,5.6879697 41.2560061,5.66915152 41.5271273,5.65869697 C41.8602788,5.64684848 42.1732182,5.63987879 42.4561879,5.63987879 C44.1867636,5.63987879 45.5563091,6.08872727 46.5257939,6.97318182 C47.4924909,7.85415152 47.9824606,9.26481818 47.9824606,11.1661515 C47.9824606,12.2652727 47.8514303,13.1929394 47.5935515,13.9233636 M47.8841879,6.02530303 C47.2994303,5.41475758 46.5522788,4.94012121 45.6629455,4.61463636 C44.7777939,4.28915152 43.7239758,4.12466667 42.5314606,4.12466667 C42.2937939,4.12466667 42.0331273,4.13093939 41.7334303,4.14348485 C41.4427939,4.15672727 41.1521576,4.17206061 40.8622182,4.19087879 C40.5778545,4.20969697 40.3004606,4.232 40.0370061,4.25709091 C39.7707636,4.28357576 39.556097,4.30866667 39.3797636,4.33375758 C39.3135515,4.34281818 39.2640667,4.3999697 39.2640667,4.46757576 L39.2640667,18.0347879 C39.2640667,18.101697 39.3128545,18.1581515 39.3783697,18.1686061 C39.5428545,18.193697 39.7484606,18.2215758 39.9951879,18.2536364 C40.246097,18.285697 40.5151273,18.3114848 40.7960061,18.3296061 C41.0803697,18.3491212 41.3737939,18.3644545 41.6762788,18.377697 C41.9850364,18.3895455 42.2728848,18.3965152 42.5314606,18.3965152 C47.2290364,18.3965152 49.6105818,15.9829091 49.6105818,11.2226061 C49.6105818,10.1332424 49.4684,9.1379697 49.1889152,8.26606061 C48.9073394,7.38927273 48.4682485,6.63515152 47.8841879,6.02530303" id="Fill-24" fill="#3F3F3F"></path>
                <g id="Group-28" transform="translate(4.878788, 0.600788)">
                    <mask id="mask-4" fill="white">
                        <use xlink:href="#path-3"></use>
                    </mask>
                    <g id="Clip-27"></g>
                    <path d="M10.9655636,12.4720636 C9.36532121,12.4720636 7.85289697,12.0803667 6.51401818,11.3861848 C7.67098788,10.5484273 9.06074545,10.0354576 10.5613212,9.95600303 C10.3745333,9.68418485 10.2818364,9.40818485 10.3090182,8.97885152 C10.3459576,8.41291212 10.5864121,7.57097273 10.9655636,7.15488182 C11.3447152,7.57097273 11.5851697,8.41291212 11.6214121,8.97885152 C11.6492909,9.40818485 11.5565939,9.68418485 11.3698061,9.95600303 C12.8703818,10.0354576 14.2601394,10.5484273 15.4164121,11.3861848 C14.0775333,12.0803667 12.5658061,12.4720636 10.9655636,12.4720636 M20.7733212,9.46254848 C20.8095636,9.26112424 20.8311697,9.05482121 20.8311697,8.84224545 C20.8311697,6.89282121 19.2504424,5.31279091 17.3010182,5.31279091 C17.0326848,5.31279091 16.7720182,5.34485152 16.5204121,5.40200303 C15.2644727,2.29212424 12.2187152,0.0959727273 8.65859394,0.0959727273 C3.97704848,0.0959727273 0.182048485,3.89097273 0.182048485,8.57321515 C0.182048485,8.62409394 0.184836364,8.67497273 0.186230303,8.72585152 C2.6082,9.37960909 4.79598788,11.7681242 6.02753333,12.6574576 C7.33783636,13.6039424 9.14159394,14.2200636 10.9655636,14.2200636 C12.7992909,14.2200636 14.5054727,13.6387909 15.9154424,12.6490939 C17.8293212,11.3799121 19.1500788,11.0035485 20.3892909,11.0871848 C22.1240485,11.2042758 23.5486545,12.5821848 23.5486545,14.3448212 C23.5486545,16.1074576 22.1637758,17.5362455 20.4562,17.5362455 C19.4825333,17.5599424 18.4510182,17.2044879 17.6585636,16.4907909 C17.5923515,16.4308515 17.6641394,16.3200333 17.7408061,16.3646394 C18.8176242,16.9988818 20.1941394,17.3097303 21.2270485,16.8002455 C21.9944121,16.4657 22.4788061,15.683003 22.5303818,14.7699727 C22.6028667,13.499397 21.7198061,12.7424879 20.6422909,12.5947303 C19.7459879,12.4720636 19.2302303,12.9250939 18.9570182,13.1355788 C18.6838061,13.3453667 18.1115939,13.9231545 17.1881091,15.6913667 C16.4130788,17.1661545 15.1620182,18.8458515 13.6461091,19.4856697 L13.648897,19.4891545 L20.3872,19.4891545 L20.3872,19.4884576 C23.1611394,19.4884576 25.4102606,17.2393364 25.4102606,14.465397 C25.4102606,11.8217909 23.3660485,9.66048788 20.7733212,9.46254848" id="Fill-26" fill="#2E2EA3" mask="url(#mask-4)"></path>
                </g>
                <path d="M10.3339697,17.3939242 C9.52618182,16.4007424 8.84315152,15.5002576 7.03939394,12.8336515 C5.17918182,10.0827121 2.64639394,10.0192879 1.73824242,10.8263788 C0.714393939,11.8049242 0.0724848485,13.1793485 0.0724848485,14.707803 C0.0724848485,17.6796818 2.48190909,20.089803 5.45518182,20.089803 L13.1615758,20.089803 L13.1650606,20.0835303 C12.051303,19.6123788 11.1417576,18.3864091 10.3339697,17.3939242" id="Fill-29" fill="#2E2EA3"></path>
                <path d="M2.74417879,4.69527576 C3.51642121,4.69527576 4.14299697,4.06939697 4.14299697,3.29645758 C4.14299697,2.52351818 3.51642121,1.89694242 2.74417879,1.89694242 C1.97123939,1.89694242 1.34536061,2.52351818 1.34536061,3.29645758 C1.34536061,4.06939697 1.97123939,4.69527576 2.74417879,4.69527576" id="Fill-31" fill="#2E2EA3"></path>
                <g id="Group-35" transform="translate(0.000000, 4.782606)">
                    <mask id="mask-6" fill="white">
                        <use xlink:href="#path-5"></use>
                    </mask>
                    <g id="Clip-34"></g>
                    <path d="M1.11271212,2.52289091 C1.72674242,2.52289091 2.22507576,2.02455758 2.22507576,1.4098303 C2.22507576,0.7958 1.72674242,0.297466667 1.11271212,0.297466667 C0.497984848,0.297466667 -0.000348484848,0.7958 -0.000348484848,1.4098303 C-0.000348484848,2.02455758 0.497984848,2.52289091 1.11271212,2.52289091" id="Fill-33" fill="#2E2EA3" mask="url(#mask-6)"></path>
                </g>
                <path d="M2.05369091,8.10596667 C2.05369091,8.54087576 2.40566061,8.89284545 2.8405697,8.89284545 C3.27547879,8.89284545 3.62744848,8.54087576 3.62744848,8.10596667 C3.62744848,7.67105758 3.27547879,7.31908788 2.8405697,7.31908788 C2.40566061,7.31908788 2.05369091,7.67105758 2.05369091,8.10596667" id="Fill-36" fill="#2E2EA3"></path>
            </g>
        </g>
    </g>
</svg>